<svg width="686" height="600" viewBox="0 0 686 600" fill="none" xmlns="http://www.w3.org/2000/svg">
<path d="M491.965 179.24C531.651 218.429 553.519 270.497 553.519 325.902C553.519 326.476 553.519 327.063 553.506 327.625C553.469 328.798 553.457 329.971 553.432 331.144C552.119 384.569 530.425 434.597 491.977 472.527C464.958 499.216 431.86 517.729 395.764 526.82L395.764 302.965L454.978 302.965L343.386 186.242L231.794 302.966L291.008 302.966L291.008 526.82C254.925 517.716 221.838 499.216 194.807 472.527C156.335 434.597 134.64 384.569 133.328 331.144C133.291 329.971 133.266 328.798 133.253 327.625C133.241 327.063 133.241 326.476 133.241 325.902C133.241 270.497 155.109 218.429 194.807 179.24C211.648 162.621 230.878 149.155 251.742 139.159L251.742 -7.20065e-05C106.978 39.5433 0.747265 170.478 0.747272 325.89C0.747272 326.464 0.747272 327.051 0.759655 327.613C0.759655 328.786 0.772037 329.959 0.821568 331.132L0.747272 331.132L0.747284 599.577L686 599.577L686 331.144L685.926 331.144C685.975 329.971 685.988 328.798 685.988 327.625C686 327.063 686 326.476 686 325.902C686 170.491 579.77 39.5555 435.03 -8.00182e-05L435.03 139.159C455.869 149.167 475.075 162.597 491.965 179.24Z" fill="#FF723B"/>
</svg>
