<svg width="156" height="49" viewBox="0 0 156 49" fill="none" xmlns="http://www.w3.org/2000/svg">
<g clip-path="url(#clip0_2238_2687)">
<path d="M29.4434 34.4651C26.6983 37.245 23.0511 38.7768 19.1701 38.7768C19.1299 38.7768 19.0888 38.7768 19.0494 38.7759C18.9673 38.7733 18.8851 38.7724 18.8029 38.7707C15.0607 38.6787 11.5563 37.1591 8.89944 34.466C7.03002 32.5734 5.73324 30.2549 5.0964 27.7265H20.7768V31.8743L28.9529 24.0576L20.7768 16.2409V20.3886H5.0964C5.73409 17.8611 7.03002 15.5435 8.89944 13.6501C11.5563 10.9551 15.0607 9.43552 18.8029 9.34358C18.8851 9.34098 18.9673 9.33925 19.0494 9.33838C19.0888 9.33751 19.1299 9.33751 19.1701 9.33751C23.0511 9.33751 26.6983 10.8693 29.4434 13.6501C30.6075 14.8297 31.5508 16.1767 32.2509 17.6382H41.9987C39.2288 7.49783 30.0571 0.0567017 19.171 0.0567017C19.1308 0.0567017 19.0897 0.0567017 19.0503 0.057569C18.9681 0.057569 18.886 0.0584364 18.8038 0.0619059V0.0567017H0V48.0567H18.8029V48.0515C18.8851 48.055 18.9673 48.0558 19.0494 48.0558C19.0888 48.0567 19.1299 48.0567 19.1701 48.0567C30.0563 48.0567 39.2279 40.6156 41.9987 30.4769H32.2509C31.5499 31.9367 30.6092 33.282 29.4434 34.4651Z" fill="#FF723B"/>
<path d="M79.0053 7.87689C82.6089 7.87689 85.5534 10.8164 85.5534 14.468V39.9408H78.6535V29.6087H60.7228V39.9408H53.9111V14.468C53.9111 10.8164 56.8119 7.87689 60.4155 7.87689H79.0053ZM78.6544 22.662V14.8245H60.7237V22.662H78.6544Z" fill="white"/>
<path d="M122.074 19.2324H115.174V14.8236H97.1997V32.9932H115.174V28.5844H121.942V34.5076C121.415 37.5807 118.734 39.9408 115.526 39.9408H96.8924C93.2888 39.9408 90.3879 37.0013 90.3879 33.3497V14.468C90.3879 10.8164 93.2888 7.87689 96.8924 7.87689H115.526C118.69 7.87689 121.327 10.237 122.074 13.265V19.2324Z" fill="white"/>
<path d="M156 14.8236H133.675V20.4346H151.649V27.3813H133.675V32.9923H156V39.9391H126.775V7.87689H156V14.8236Z" fill="white"/>
</g>
<defs>
<clipPath id="clip0_2238_2687">
<rect width="156" height="48" fill="white" transform="translate(0 0.0567017)"/>
</clipPath>
</defs>
</svg>
